<?xml version="1.0" encoding="UTF-8"?>
<svg xmlns="http://www.w3.org/2000/svg" viewBox="0 0 800 600" role="img" aria-label="Ilustración de hojas y plantas" preserveAspectRatio="xMidYMid meet">
  <defs>
    <linearGradient id="g1" x1="0" x2="1">
      <stop offset="0%" stop-color="#7fbf6f"/>
      <stop offset="100%" stop-color="#2f7a4a"/>
    </linearGradient>
  </defs>
  <rect width="100%" height="100%" fill="#f7f7f6"/>

  <!-- stylized leaves -->
  <g transform="translate(120,120) scale(1.1)">
    <path d="M280 60 C200 10 120 20 80 80 C40 140 80 220 140 260 C200 300 280 280 320 220 C360 160 360 110 280 60 Z" fill="url(#g1)" opacity="0.98"/>
    <path d="M180 140 C140 100 80 110 60 150 C40 190 70 230 110 250 C150 270 200 260 220 220 C240 180 220 160 180 140 Z" fill="#9fd99a" opacity="0.95"/>
  </g>

  <!-- small sprigs -->
  <g transform="translate(420,200) scale(0.9)">
    <path d="M20 120 C40 80 80 60 120 60" stroke="#2f7a4a" stroke-width="6" fill="none" stroke-linecap="round"/>
    <ellipse cx="30" cy="100" rx="18" ry="10" fill="#7fbf6f"/>
    <ellipse cx="70" cy="80" rx="22" ry="12" fill="#6fbf7a"/>
  </g>

  <!-- subtle decorative dots -->
  <g fill="#e6f5ea">
    <circle cx="60" cy="520" r="6"/>
    <circle cx="720" cy="520" r="6"/>
    <circle cx="400" cy="40" r="6"/>
  </g>

</svg>
